<svg xmlns="http://www.w3.org/2000/svg" width="24.491" height="24.491" viewBox="0 0 24.491 24.491">
  <g id="Grupo_12229" data-name="Grupo 12229" transform="translate(-34.754 -862.509)">
    <path id="Trazado_47873" data-name="Trazado 47873" d="M28.491,18.245h-2.5a1,1,0,0,1,0-2h.085L17.245,7.414,8.414,16.245H8.5a1,1,0,0,1,0,2H6a1,1,0,0,1-.707-1.707L16.538,5.293a1,1,0,0,1,1.414,0L29.2,16.538a1,1,0,0,1-.707,1.707Z" transform="translate(29.755 857.509)" fill=""/>
    <path id="Trazado_47874" data-name="Trazado 47874" d="M24.994,36.245H12.5a3.5,3.5,0,0,1-3.5-3.5V24a1,1,0,0,1,2,0v8.746a1.5,1.5,0,0,0,1.5,1.5H24.994a1.5,1.5,0,0,0,1.5-1.5V24a1,1,0,0,1,2,0v8.746A3.5,3.5,0,0,1,24.994,36.245Z" transform="translate(28.254 850.755)" fill=""/>
    <path id="Trazado_47875" data-name="Trazado 47875" d="M25.5,37a1,1,0,0,1-1-1V28.5A1.5,1.5,0,0,0,23,27H20.5A1.5,1.5,0,0,0,19,28.5V36a1,1,0,0,1-2,0V28.5A3.5,3.5,0,0,1,20.5,25H23a3.5,3.5,0,0,1,3.5,3.5V36A1,1,0,0,1,25.5,37Z" transform="translate(25.251 850.004)" fill=""/>
  </g>
</svg>
