<svg xmlns="http://www.w3.org/2000/svg" width="21.992" height="24.491" viewBox="0 0 21.992 24.491">
  <g id="Grupo_12231" data-name="Grupo 12231" transform="translate(-1575 -825)">
    <path id="Trazado_47932" data-name="Trazado 47932" d="M10.5,9H25.493a3.5,3.5,0,0,1,3.5,3.5V27.493a3.5,3.5,0,0,1-3.5,3.5H10.5a3.5,3.5,0,0,1-3.5-3.5V12.5A3.5,3.5,0,0,1,10.5,9ZM25.493,28.992a1.5,1.5,0,0,0,1.5-1.5V12.5a1.5,1.5,0,0,0-1.5-1.5H10.5A1.5,1.5,0,0,0,9,12.5V27.493a1.5,1.5,0,0,0,1.5,1.5Z" transform="translate(1568 818.499)" fill=""/>
    <path id="Trazado_47933" data-name="Trazado 47933" d="M32,12a1,1,0,0,1-1-1V6a1,1,0,0,1,2,0v5A1,1,0,0,1,32,12Z" transform="translate(1558.994 820)" fill=""/>
    <path id="Trazado_47934" data-name="Trazado 47934" d="M16,12a1,1,0,0,1-1-1V6a1,1,0,0,1,2,0v5A1,1,0,0,1,16,12Z" transform="translate(1564.998 820)" fill=""/>
    <path id="Trazado_47935" data-name="Trazado 47935" d="M27.992,23H8a1,1,0,0,1,0-2H27.992a1,1,0,0,1,0,2Z" transform="translate(1568 813.996)" fill=""/>
    <path id="Trazado_47936" data-name="Trazado 47936" d="M16,29h2.5a1,1,0,0,1,1,1v2.5a1,1,0,0,1-1,1H16a1,1,0,0,1-1-1V30A1,1,0,0,1,16,29Zm1.5,2H17v.5h.5Z" transform="translate(1564.998 810.994)" fill=""/>
  </g>
</svg>
