<svg xmlns="http://www.w3.org/2000/svg" width="25.906" height="24.339" viewBox="0 0 25.906 24.339">
  <path id="Trazado_48486" data-name="Trazado 48486" d="M8.915,30.519A1.634,1.634,0,0,1,7.569,27.81l.023-.03a13.556,13.556,0,0,0,1.424-2.093A10.7,10.7,0,0,1,5,17.493,10.575,10.575,0,0,1,8.848,9.445,13.892,13.892,0,0,1,17.953,6.18a13.892,13.892,0,0,1,9.105,3.265,10.575,10.575,0,0,1,3.848,8.048,10.367,10.367,0,0,1-3.856,7.975,14.061,14.061,0,0,1-9.1,3.179c-.511,0-1.314-.031-2.513-.1A13.3,13.3,0,0,1,8.915,30.519Zm1.675-6.132c.135.1.226.164.227.164a1,1,0,0,1,.376,1.155A11.541,11.541,0,0,1,9.58,28.488,11.739,11.739,0,0,0,14.632,26.7a1,1,0,0,1,.6-.16c1.339.076,2.2.111,2.719.111a12.062,12.062,0,0,0,7.806-2.707,8.4,8.4,0,0,0,3.146-6.447c0-5.135-4.913-9.313-10.953-9.313S7,12.358,7,17.493a8.079,8.079,0,0,0,.957,3.813A9.532,9.532,0,0,0,10.59,24.387Z" transform="translate(-5 -6.18)" fill=""/>
</svg>
