<svg xmlns="http://www.w3.org/2000/svg" width="16.994" height="24.49" viewBox="0 0 16.994 24.49">
  <path id="Unión_4" data-name="Unión 4" d="M-6033.005,23.49v-2.5a4,4,0,0,0-4-4h-5a4,4,0,0,0-4,4v2.5a1,1,0,0,1-1,1,1,1,0,0,1-1-1v-2.5a6.006,6.006,0,0,1,6-6h5a6,6,0,0,1,6,6v2.5a1,1,0,0,1-1,1A1,1,0,0,1-6033.005,23.49ZM-6046,6.622A6.63,6.63,0,0,1-6039.377,0a6.63,6.63,0,0,1,6.623,6.622,6.63,6.63,0,0,1-6.623,6.622A6.63,6.63,0,0,1-6046,6.622Zm2,0a4.627,4.627,0,0,0,4.622,4.623,4.628,4.628,0,0,0,4.624-4.623A4.628,4.628,0,0,0-6039.377,2,4.627,4.627,0,0,0-6044,6.622Z" transform="translate(6048)" fill=""/>
</svg>
