<svg id="bell" xmlns="http://www.w3.org/2000/svg" width="28.546" height="28.546" viewBox="0 0 28.546 28.546">
  <path id="Trazado_48634" data-name="Trazado 48634" d="M16.908,27.694a4.465,4.465,0,0,1-4.46-4.46v-.3H7.392a.892.892,0,0,1-.631-1.523l1.671-1.671a1.533,1.533,0,0,0,.446-1.076V14.908a8.049,8.049,0,0,1,4.764-7.338,3.271,3.271,0,0,1,6.53,0,8.049,8.049,0,0,1,4.764,7.338v3.759a1.533,1.533,0,0,0,.446,1.076l1.671,1.671a.892.892,0,0,1-.631,1.523H21.317a.89.89,0,0,1,.051.3A4.465,4.465,0,0,1,16.908,27.694Zm-2.676-4.6v.136a2.716,2.716,0,1,0,5.43-.136Zm-.889-1.945H24.269L24.121,21a3.329,3.329,0,0,1-.969-2.338V14.908a6.26,6.26,0,0,0-4.163-5.891.892.892,0,0,1-.594-.841v-.4a1.487,1.487,0,1,0-2.974,0v.4a.892.892,0,0,1-.594.841,6.26,6.26,0,0,0-4.163,5.891v3.759A3.329,3.329,0,0,1,9.694,21l-.148.148h3.8Z" transform="translate(-2.634 -1.824)" fill="#292426"/>
  <path id="Trazado_48635" data-name="Trazado 48635" d="M0,0H28.546V28.546H0Z" fill="none"/>
</svg>
