<svg id="calendar_event" data-name="calendar event" xmlns="http://www.w3.org/2000/svg" width="17.141" height="17.141" viewBox="0 0 17.141 17.141">
  <path id="Trazado_47891" data-name="Trazado 47891" d="M14.713,3.428H17.57a.716.716,0,0,1,.714.714V15.57a.716.716,0,0,1-.714.714H4.714A.716.716,0,0,1,4,15.57V4.143a.716.716,0,0,1,.714-.714H7.571V2H9V3.428h4.285V2h1.428Zm2.143,4.285V4.857H14.713V6.285H13.284V4.857H9V6.285H7.571V4.857H5.428V7.714Zm0,1.428H5.428v5.714H16.855Zm-10,1.428h3.571v2.857H6.857Z" transform="translate(-2.572 -1.286)" fill="#f576b3"/>
  <path id="Trazado_47892" data-name="Trazado 47892" d="M0,0H17.141V17.141H0Z" fill="none"/>
</svg>
