<svg id="Camera" xmlns="http://www.w3.org/2000/svg" width="16" height="16" viewBox="0 0 16 16">
  <path id="Trazado_46709" data-name="Trazado 46709" d="M12.5,12a2,2,0,1,1-2-2A2,2,0,0,1,12.5,12ZM7.688,6.83A1.5,1.5,0,0,1,9.028,6h3.3a1.5,1.5,0,0,1,1.34.83L14.25,8H15.7a2,2,0,0,1,2,2v5a2,2,0,0,1-2,2H5.75a2,2,0,0,1-2-2V10a2,2,0,0,1,2-2H7.1ZM13.5,12a3,3,0,1,0-3,3A3,3,0,0,0,13.5,12Z" transform="translate(-2.5 -4)" fill="#ef3890"/>
  <path id="Trazado_46710" data-name="Trazado 46710" d="M0,0H16V16H0Z" fill="none"/>
</svg>
