<svg xmlns="http://www.w3.org/2000/svg" width="28" height="18" viewBox="0 0 28 18">
  <g id="Grupo_11159" data-name="Grupo 11159" transform="translate(-340 -560)">
    <rect id="Rect치ngulo_19015" data-name="Rect치ngulo 19015" width="28" height="18" rx="2" transform="translate(340 560)" fill="#006fd0"/>
    <g id="Grupo_11112" data-name="Grupo 11112" transform="translate(74.901 64.998)">
      <rect id="Rect치ngulo_19019" data-name="Rect치ngulo 19019" width="16" height="15" rx="2" transform="translate(276 497.099)" fill="#fff"/>
      <g id="american-express_5968245" transform="translate(275.657 496)">
        <path id="Trazado_46708" data-name="Trazado 46708" d="M16.442,16.442V13.837H14.459l-1.021-1.129-1.026,1.129H5.871V8.574H3.76L6.378,2.648H8.9l.9,2.03V2.648H12.93l.543,1.53.546-1.53h2.423V0H0V16.442Zm-1.649-3.264h1.649L14.26,10.864l2.182-2.288H14.819l-1.348,1.473L12.137,8.577h-1.65l2.169,2.3-2.169,2.3h1.6l1.354-1.486,1.348,1.486Zm.386-2.312,1.264,1.344V9.533l-1.264,1.333ZM7.825,12.113V11.4h2.6V10.358h-2.6V9.642h2.662V8.577H6.569v4.6h3.918V12.113H7.825Zm7.375-4.2h1.242v-4.6H14.51L13.478,6.173,12.452,3.307H10.487v4.6h1.242V4.688l1.183,3.221h1.1L15.2,4.681V7.909Zm-6.126,0h1.413l-2.031-4.6H6.838l-2.031,4.6h1.38l.381-.92H8.686l.388.92ZM8.252,5.956H7l.625-1.505.625,1.505Z" fill="#006fcf"/>
      </g>
    </g>
  </g>
</svg>
