<svg xmlns="http://www.w3.org/2000/svg" width="27.85" height="13.065" viewBox="0 0 27.85 13.065">
  <g id="Grupo_12215" data-name="Grupo 12215" transform="translate(-157.689 -183.5)">
    <g id="Grupo_1" data-name="Grupo 1" transform="translate(157.689 183.5)">
      <path id="Trazado_1" data-name="Trazado 1" d="M32.261,46.305l-6.351-4.6a.33.33,0,0,0-.386,0l-2.917,2.11a3.211,3.211,0,0,0-.183-.274,4.566,4.566,0,0,0-6.4-1.015l-1.172.847-1.162-.862a4.588,4.588,0,1,0-5.382,7.432l6.351,4.6a.33.33,0,0,0,.386,0l2.917-2.11a3.213,3.213,0,0,0,.183.274,4.566,4.566,0,0,0,6.4,1.015l1.172-.847,1.162.862a4.566,4.566,0,0,0,6.23-6.625,4.616,4.616,0,0,0-.847-.807Zm-10.527,2.42a3.967,3.967,0,0,1-.725.685l-2.8,2.029a3.916,3.916,0,0,1,.619-3.911,3.978,3.978,0,0,1,.725-.685l2.8-2.029A3.916,3.916,0,0,1,21.734,48.725ZM14.85,53.869,8.692,49.415a3.982,3.982,0,0,1-.725-.685,3.927,3.927,0,0,1,5.327-5.677l1.365.989a.33.33,0,0,0,.386,0l1.365-.989a3.932,3.932,0,0,1,5.484.878c.066.091.112.188.172.284l-2.892,2.09A4.606,4.606,0,0,0,17.65,51.84Zm17.9-1.522a3.932,3.932,0,0,1-5.479.852l-1.365-.989a.33.33,0,0,0-.386,0l-1.365.989a3.932,3.932,0,0,1-5.484-.878c-.066-.091-.112-.188-.172-.284l2.892-2.09a4.606,4.606,0,0,0,1.522-5.535l2.8-2.029,6.159,4.459a3.982,3.982,0,0,1,.725.685,3.927,3.927,0,0,1,.152,4.794Z" transform="translate(-6.409 -41.643)" fill=""/>
    </g>
  </g>
</svg>
