<svg xmlns="http://www.w3.org/2000/svg" width="28" height="18" viewBox="0 0 28 18">
  <g id="Grupo_11157" data-name="Grupo 11157" transform="translate(-275 -560)">
    <g id="Rectángulo_19020" data-name="Rectángulo 19020" transform="translate(275 560)" fill="none" stroke="#dcdee2" stroke-width="0.5">
      <rect width="28" height="18" rx="2" stroke="none"/>
      <rect x="0.25" y="0.25" width="27.5" height="17.5" rx="1.75" fill="none"/>
    </g>
    <path id="visa_5968397" d="M8.1,173.44,5.306,180.1H3.484l-1.373-5.315a.736.736,0,0,0-.41-.586,7.247,7.247,0,0,0-1.7-.566l.042-.193H2.974a.8.8,0,0,1,.794.679l.726,3.855,1.793-4.535H8.1Zm7.137,4.485c.008-1.757-2.431-1.853-2.414-2.639,0-.24.232-.494.73-.558a3.252,3.252,0,0,1,1.7.3l.3-1.412a4.632,4.632,0,0,0-1.612-.295c-1.7,0-2.9.906-2.912,2.2-.011.958.855,1.493,1.509,1.813.671.327.9.535.893.828,0,.447-.536.642-1.031.651a3.606,3.606,0,0,1-1.771-.421l-.312,1.46a5.256,5.256,0,0,0,1.917.354c1.81,0,2.994-.9,3-2.281m4.5,2.176h1.594l-1.391-6.661H18.463a.786.786,0,0,0-.734.488L15.145,180.1h1.809l.359-.995h2.211Zm-1.923-2.36.907-2.5.522,2.5Zm-7.249-4.3L9.134,180.1H7.41l1.426-6.661Z" transform="translate(278 392.681)" fill="#161d64"/>
  </g>
</svg>
