<svg xmlns="http://www.w3.org/2000/svg" width="29.372" height="14.231" viewBox="0 0 29.372 14.231">
  <g id="Grupo_12327" data-name="Grupo 12327" transform="translate(-157.192 -183)">
    <g id="Grupo_1" data-name="Grupo 1" transform="translate(157.192 183)">
      <path id="Trazado_1" data-name="Trazado 1" d="M32.887,46.418l-6.505-4.707a.338.338,0,0,0-.395,0L23,43.872a3.289,3.289,0,0,0-.187-.281,4.676,4.676,0,0,0-6.557-1.039l-1.2.868-1.19-.883a4.7,4.7,0,0,0-5.513,7.612l6.505,4.707a.338.338,0,0,0,.395,0l2.988-2.161a3.291,3.291,0,0,0,.187.281,4.676,4.676,0,0,0,6.557,1.039l1.2-.868,1.19.883a4.676,4.676,0,0,0,6.381-6.786,4.729,4.729,0,0,0-.868-.826ZM22.105,48.9a4.063,4.063,0,0,1-.743.7l-2.868,2.078a4.011,4.011,0,0,1,.634-4.006,4.074,4.074,0,0,1,.743-.7l2.868-2.078A4.011,4.011,0,0,1,22.105,48.9Zm-7.051,5.269L8.747,49.6A4.079,4.079,0,0,1,8,48.9a4.022,4.022,0,0,1,5.456-5.814l1.4,1.013a.338.338,0,0,0,.395,0l1.4-1.013a4.027,4.027,0,0,1,5.617.9c.068.094.114.192.177.291l-2.962,2.141a4.718,4.718,0,0,0-1.559,5.669Zm18.336-1.559a4.027,4.027,0,0,1-5.612.873l-1.4-1.013a.338.338,0,0,0-.395,0l-1.4,1.013a4.027,4.027,0,0,1-5.617-.9c-.068-.094-.114-.192-.177-.291l2.962-2.141a4.718,4.718,0,0,0,1.559-5.669L26.184,42.4l6.308,4.567a4.079,4.079,0,0,1,.743.7,4.022,4.022,0,0,1,.156,4.91Z" transform="translate(-5.986 -41.219)" fill="#ef3890"/>
      <path id="Trazado_1_-_Contorno" data-name="Trazado 1 - Contorno" d="M11.037,41.143a5.087,5.087,0,0,1,3,.974l0,0,.94.7.948-.685a5.066,5.066,0,0,1,3.012-.984A5.1,5.1,0,0,1,23.029,43.2l2.634-1.905a.762.762,0,0,1,.892,0L33.061,46a5.162,5.162,0,0,1,.942.9,5.1,5.1,0,0,1-6.962,7.4l-.936-.695-.948.685a5.066,5.066,0,0,1-3.012.984A5.1,5.1,0,0,1,18.06,53.22l-2.634,1.905a.763.763,0,0,1-.892,0L8.028,50.418a5.124,5.124,0,0,1,3.009-9.274ZM21.8,44.092a3.616,3.616,0,0,0-2.867-1.417,3.575,3.575,0,0,0-2.106.682l-1.4,1.013a.762.762,0,0,1-.893,0l-1.4-1.014a3.572,3.572,0,0,0-2.09-.671,3.6,3.6,0,0,0-2.787,5.873,3.654,3.654,0,0,0,.665.627l6.057,4.381,2.354-1.706A5.142,5.142,0,0,1,19.156,46Zm11.095,8.3v-.02l.08-.111a3.6,3.6,0,0,0-.139-4.392,3.657,3.657,0,0,0-.666-.628l-6.057-4.386-2.354,1.706a5.142,5.142,0,0,1-1.823,5.86l-2.64,1.908a3.616,3.616,0,0,0,2.867,1.417,3.576,3.576,0,0,0,2.106-.682l1.4-1.013a.762.762,0,0,1,.893,0l1.4,1.014a3.575,3.575,0,0,0,2.114.688A3.62,3.62,0,0,0,32.891,52.388Zm-14.24-1.479,2.387-1.729a3.638,3.638,0,0,0,.664-.627,3.591,3.591,0,0,0,.73-3.043l-2.387,1.729a3.648,3.648,0,0,0-.664.627A3.591,3.591,0,0,0,18.652,50.908Z" transform="translate(-5.911 -41.143)" fill="#ef3890"/>
    </g>
  </g>
</svg>
