<svg xmlns="http://www.w3.org/2000/svg" width="59.336" height="27.835" viewBox="0 0 59.336 27.835">
  <g id="Grupo_12215" data-name="Grupo 12215" transform="translate(-157.689 -183.5)">
    <g id="Grupo_1" data-name="Grupo 1" transform="translate(157.689 183.5)">
      <path id="Trazado_1" data-name="Trazado 1" d="M61.488,51.576,47.956,41.784a.7.7,0,0,0-.821,0l-6.215,4.5a6.842,6.842,0,0,0-.389-.584,9.727,9.727,0,0,0-13.64-2.162l-2.5,1.8L21.919,43.5A9.775,9.775,0,1,0,10.451,59.336l13.532,9.792a.7.7,0,0,0,.821,0l6.215-4.5a6.846,6.846,0,0,0,.389.584,9.727,9.727,0,0,0,13.64,2.162l2.5-1.8L50.02,67.41A9.727,9.727,0,0,0,63.293,53.295a9.836,9.836,0,0,0-1.8-1.719ZM39.061,56.732a8.452,8.452,0,0,1-1.546,1.459l-5.966,4.323a8.344,8.344,0,0,1,1.319-8.333,8.474,8.474,0,0,1,1.546-1.459L40.379,48.4A8.344,8.344,0,0,1,39.061,56.732ZM24.394,67.691,11.272,58.2a8.484,8.484,0,0,1-1.546-1.459A8.366,8.366,0,0,1,21.076,44.648l2.907,2.108a.7.7,0,0,0,.821,0l2.907-2.108A8.376,8.376,0,0,1,39.4,46.518c.141.195.238.4.367.605L33.6,51.576A9.814,9.814,0,0,0,30.36,63.368Zm38.143-3.243a8.376,8.376,0,0,1-11.673,1.816l-2.907-2.108a.7.7,0,0,0-.821,0l-2.907,2.108a8.376,8.376,0,0,1-11.684-1.87c-.141-.195-.238-.4-.367-.605l6.161-4.453a9.814,9.814,0,0,0,3.243-11.792l5.966-4.323,13.121,9.5a8.485,8.485,0,0,1,1.546,1.459,8.366,8.366,0,0,1,.324,10.214Z" transform="translate(-6.409 -41.643)" fill="#fff"/>
    </g>
  </g>
</svg>
