<svg xmlns="http://www.w3.org/2000/svg" width="28" height="18" viewBox="0 0 28 18">
  <g id="Grupo_11158" data-name="Grupo 11158" transform="translate(-308 -560)">
    <rect id="Rectángulo_19016" data-name="Rectángulo 19016" width="28" height="18" rx="2" transform="translate(308 560)" fill="#393939"/>
    <g id="Grupo_11111" data-name="Grupo 11111" transform="translate(311.512 562.461)">
      <rect id="rect19" width="5.643" height="10.137" transform="translate(7.596 1.379)" fill="#ff5a00"/>
      <path id="XMLID_330_" d="M7.971,6.448a6.466,6.466,0,0,1,2.454-5.069A6.446,6.446,0,1,0,6.448,12.9a6.413,6.413,0,0,0,3.977-1.379A6.435,6.435,0,0,1,7.971,6.448Z" transform="translate(0 0)" fill="#eb001b"/>
      <path id="path22" d="M510.025,6.448A6.442,6.442,0,0,1,499.6,11.517a6.462,6.462,0,0,0,0-10.137,6.442,6.442,0,0,1,10.425,5.069Z" transform="translate(-489.175 0)" fill="#f79e1b"/>
    </g>
  </g>
</svg>
