<svg id="phone_lock" data-name="phone lock" xmlns="http://www.w3.org/2000/svg" width="21" height="21" viewBox="0 0 21 21">
  <path id="Trazado_47871" data-name="Trazado 47871" d="M21.375,4a.878.878,0,0,1,.875.875V11H20.5V5.75H11.75v14h4.375V21.5h-5.25A.878.878,0,0,1,10,20.625V4.875A.878.878,0,0,1,10.875,4Zm0,8.75A2.627,2.627,0,0,1,24,15.375v.875h.875v4.375A.878.878,0,0,1,24,21.5H18.75a.878.878,0,0,1-.875-.875V16.25h.875v-.875A2.627,2.627,0,0,1,21.375,12.75ZM23.125,18h-3.5v1.75h3.5Zm-1.75-3.5a.9.9,0,0,0-.875.875v.875h1.75v-.875A.878.878,0,0,0,21.375,14.5Z" transform="translate(-5.625 -2.25)" fill="#ef3890"/>
  <path id="Trazado_47872" data-name="Trazado 47872" d="M0,0H21V21H0Z" fill="none"/>
</svg>
