<svg id="settings" xmlns="http://www.w3.org/2000/svg" width="28.283" height="28.283" viewBox="0 0 28.283 28.283">
  <path id="Trazado_48475" data-name="Trazado 48475" d="M14.631,7.549a2.032,2.032,0,0,1,3.948,0A2.033,2.033,0,0,0,21.613,8.81,2.033,2.033,0,0,1,24.406,11.6a2,2,0,0,0-.141,1.832,2.023,2.023,0,0,0,1.4,1.2,2.032,2.032,0,0,1,0,3.948A2.033,2.033,0,0,0,24.4,21.613a2.033,2.033,0,0,1-2.793,2.793,2,2,0,0,0-1.832-.141,2.023,2.023,0,0,0-1.2,1.4,2.032,2.032,0,0,1-3.948,0A2.033,2.033,0,0,0,11.6,24.4,2.033,2.033,0,0,1,8.8,21.607a2,2,0,0,0,.141-1.832,2.023,2.023,0,0,0-1.4-1.2,2.032,2.032,0,0,1,0-3.948A2.033,2.033,0,0,0,8.81,11.6,2.033,2.033,0,0,1,11.6,8.8,2.026,2.026,0,0,0,14.631,7.549Z" transform="translate(-2.464 -2.464)" fill="none" stroke="#ef3890" stroke-linecap="round" stroke-linejoin="round" stroke-width="2"/>
  <path id="Trazado_48476" data-name="Trazado 48476" d="M25.071,21.535A3.535,3.535,0,1,1,21.535,18,3.538,3.538,0,0,1,25.071,21.535Z" transform="translate(-7.394 -7.394)" fill="none" stroke="#ef3890" stroke-linecap="round" stroke-linejoin="round" stroke-width="2"/>
  <path id="Trazado_48477" data-name="Trazado 48477" d="M0,0H28.283V28.283H0Z" fill="none"/>
</svg>
